<?xml version="1.0" encoding="utf-8"?>
<!-- Generator: Adobe Illustrator 26.1.0, SVG Export Plug-In . SVG Version: 6.00 Build 0)  -->
<svg width="180" version="1.1" id="Layer_1" xmlns="http://www.w3.org/2000/svg" xmlns:xlink="http://www.w3.org/1999/xlink" x="0px" y="0px"
	 viewBox="0 0 836.3 143.4" style="enable-background:new 0 0 836.3 143.4;" xml:space="preserve">
<style type="text/css">
	.st0{fill:#F2EBE3;}
	.st1{fill:#F5EFE7;}
	.st2{fill:#4A8FE7;}
	.st3{fill:#FFFFFF;}
</style>
<path class="st0" d="M81.3,71.7"/>
<path class="st1" d="M674.6,1.1c11.1,0,22.1-0.1,33.1,0.1c1.3,0,3.3,1.8,3.8,3.2c10.6,27.6,21,55.2,31.5,82.9
	c1.8,4.8,3.7,9.6,6.1,15.7c2.6-6.8,4.8-12.4,6.8-17.9c10-26.8,19.9-53.5,29.8-80.3c0.8-2.3,1.7-4,4.7-3.9
	c10.4,0.2,20.7,0.1,31.2,0.1c1.2,2.7,0.9,4.3-2.2,5.1c-7.2,1.8-8.2,3-7.8,10.5c0.8,19.1,1.9,38.2,2.9,57.3
	c0.9,17.1,1.8,34.3,2.6,51.4c0.4,8.6,1.8,10.2,10.2,12.4c1.5,0.4,2.6,2,3.9,3.1c-0.3,0.4-0.5,0.8-0.8,1.2c-0.9,0.1-1.9,0.4-2.8,0.4
	c-14.3,0-28.7,0-43-0.2c-1.3,0-2.5-1.2-3.7-1.9c1-1,1.7-2.5,2.9-3c9.5-3.6,10.3-4.4,9.8-14.2c-1.6-30.5-3.3-61.1-5-91.6
	c0-0.2-0.3-0.5-0.8-1.2c-3,8-6,15.7-8.8,23.4c-10.3,28.7-20.7,57.5-30.8,86.3c-1.1,3.2-2.9,3.5-5.8,3.7c-3.4,0.2-4-1.6-4.9-4.1
	c-13.4-36.7-26.8-73.3-40.3-109.9c-0.1-0.4-0.4-0.8-1.2-2c-0.7,13.5-1.5,26.1-2,38.7c-0.8,19.6-1.5,39.2-2,58.8
	c-0.2,7.9,1.6,9.8,9.6,11.6c1,0.2,2,0.3,2.8,0.8c0.9,0.6,1.6,1.6,2.3,2.3c-0.9,0.7-1.7,2-2.6,2c-7.7,0.2-15.5,0.3-23.2,0.3
	c-4.1,0-8.2,0.1-12.3-0.2c-1.1-0.1-2.1-1.3-3.1-2c0.9-0.9,1.7-2.4,2.7-2.6c8.9-1.9,12.3-8,12.8-16.3c1.5-23.3,2.9-46.7,4.2-70
	c0.7-11.8,1.3-23.5,1.5-35.3c0.1-7.9-0.6-8.3-8.4-9.9C675.7,5.3,673.1,5.2,674.6,1.1z"/>
<path class="st1" d="M569.2,138.5c1,2.9,0,4.1-3.2,4.1c-14.3-0.1-28.6,0-43-0.2c-1.3,0-2.6-1.7-3.9-2.6c0.3-0.5,0.5-1,0.8-1.5
	c1.3-0.2,2.5-0.3,3.7-0.6c6.8-1.3,9-3.7,9.1-10.6c0.1-16.9,0-33.9,0-51.2c-22.1,0-44.1,0-66.8,0c0,3.1,0,6.4,0,9.6
	c0,13.2,0,26.3,0,39.5c0,9.3,1.5,11,10.4,13c1.3,0.3,2.2,2.2,3.3,3.3c-0.4,0.4-0.7,0.8-1.1,1.2c-15.9,0-31.8,0-48,0
	c0-1.4,0-2.7,0-4.1c0.6-0.2,1.2-0.4,1.8-0.5c7.8-1,10.4-3.8,10.4-11.6c0.1-24.9,0.1-49.7,0.1-74.6c0-11.5,0.1-23.1,0-34.6
	c0-8.6-1.1-9.7-9.3-11.9c-1.3-0.3-2.2-2.1-3.3-3.2c0.3-0.4,0.5-0.8,0.8-1.2c15.4,0,30.8,0,46.4,0c1.2,2.6,1,4.1-2.6,4.7
	c-6.5,1.2-8.5,3.2-8.6,9.4c-0.3,15.9-0.1,31.9-0.1,48.2c22,0,44,0,66.2,0c0.1-1.4,0.4-2.6,0.4-3.9c0-14.2,0-28.3,0-42.5
	c0-7.7-1.9-10.1-9.4-11.3c-3.2-0.5-4-1.7-3-4.8c15.6,0,31.4,0,47.2,0c1.1,3.1,0.3,4.3-3.1,4.9c-7.2,1.1-8.4,2.9-8.4,10.2
	c-0.1,35.1-0.1,70.1-0.1,105.2C556.1,135,556.1,135,569.2,138.5z"/>
<path class="st1" d="M104.8,0.6c0,9.7,0.1,18.9-0.1,28.1c0,1-1.3,2.1-2,3.1c-0.9-0.9-2.4-1.6-2.7-2.6C97.1,18.3,89.7,12.8,79,12.4
	c-12.5-0.5-25-0.1-37.9-0.1c0,16.9,0,33.8,0,50.8c12.2,0,24.5,0.3,36.7-0.2c5.5-0.2,8.9-4.2,10.8-9.6c0.6-1.6,2.3-2.9,3.4-4.3
	c0.5,0.3,0.9,0.6,1.4,0.9c0.1,0.9,0.4,1.8,0.4,2.7c0,11.4,0,22.7-0.2,34.1c0,1.2-1.1,2.3-1.7,3.4c-1-1-2.6-1.7-3-2.9
	c-2.8-8.6-6.5-11.7-15.3-11.8c-10.8-0.1-21.6,0-33,0c0,4.2,0,7.9,0,11.6c0,11.5,0,23,0,34.6c0,6.4,2,9.3,8.2,9.3
	c12.9,0.1,26,0.1,38.8-1.2c10.7-1.1,17.6-8.3,20.7-18.7c0.6-2.1,1.1-4.6,4-3.4c0.9,0.4,1.6,2.9,1.4,4.3c-1.1,10.3-2.5,20.5-3.9,31
	c-35.1,0-69.8,0-104.6,0c0-1.7,0-3.2,0-4.9c1.6-0.4,3.3-0.9,5-1.4c5.3-1.6,7.6-4.5,7.6-10c0-36.9,0-73.7,0-110.6
	c0-5.9-2.3-8.5-9.3-10.2C5.8,5.1,4.1,4.2,5.5,0.6C38.3,0.6,71.3,0.6,104.8,0.6z"/>
<path class="st1" d="M174.1,130.1c11.9,0,23.1,0.7,34.2-0.2c13-1.1,21.7-8.7,25.7-21.2c0.9-2.9,2.3-4.1,5.9-2.8
	c-1.9,12.1-3.7,24.2-5.7,36.8c-31.7,0-63.4,0-96.7,0c1.4-2.2,2-4.4,3.3-4.8c8.5-2.7,9.8-3.9,9.9-12.7c0.1-25,0.1-50,0.1-75.1
	c0-11.5,0-23-0.3-34.6c-0.2-7.1-2-8.7-8.8-10.4c-1.3-0.3-2.3-2.2-3.4-3.3c0.3-0.4,0.7-0.8,1-1.2c15.4,0,30.8,0,46.2,0
	c0.7,2.6,1,4.5-2.6,4.8c-5.3,0.6-8.2,3.6-8.3,9.2c-0.1,7.2-0.7,14.5-0.7,21.7c-0.1,29.3,0,58.6,0,87.9
	C174.1,126.3,174.1,128.3,174.1,130.1z"/>
<path class="st1" d="M643.8,142.6c-9,0-18,0-27,0c-5.8,0-11.5-0.2-17.3,0c-3.3,0.1-4.1-1.2-3.2-4.4c1.1-0.2,2.3-0.5,3.6-0.7
	c5.2-1.1,8.1-4.2,8.2-9.6c0.2-15,0.4-29.9,0.5-44.9c0.1-20.6,0-41.1,0-61.7c0-1.1,0-2.3-0.1-3.4c-0.4-9.5-1.4-10.8-11-12.9
	c0-1.3,0-2.7,0-4.2c15.4,0,30.6,0,45.8,0c0.3,0.4,0.7,0.8,1,1.2c-1.1,1.1-2.1,3-3.4,3.3c-7.2,1.7-9.3,3.7-9.4,11.6
	c-0.2,17.4,0,34.9,0,52.3c0,18.8,0,37.5,0,56.2c0,8.5,1.8,10.4,10,12.5c1.3,0.3,2.2,2.2,3.3,3.3
	C644.5,141.7,644.2,142.1,643.8,142.6z"/>
<path class="st2" d="M387.3,71.7c0,5.9-0.9,11.7-2.7,17.2c-1.8,5.6-4.5,10.9-8,15.7c-10.5,14.5-27.5,23.1-45.3,23.1
	c-23.9,0-45.1-15.2-52.9-37.7c-2-5.8-3.1-12-3.1-18.2c0-4.1,0.5-8.3,1.4-12.3c5.7-25.3,28.7-43.6,54.6-43.6
	c14.1,0,27.5,5.2,37.8,14.7c9.8,9,16.1,21.2,17.7,34.3C387.2,67,387.3,69.4,387.3,71.7z"/>
<path class="st3" d="M320.2,89.1h-39.3c-1.9-5.5-2.9-11.3-2.9-17.4c0-4,0.5-8,1.3-11.8c7.2,0,19,2.5,26.6,17.7
	C305.9,77.7,318.5,78,320.2,89.1z"/>
<path class="st3" d="M382.2,88.1c-1.7,5.4-4.3,10.5-7.6,15h-37.9c0,0,3.5-7.6,16.6-8.8C353.3,94.3,364.5,78.8,382.2,88.1z"/>
<path class="st3" d="M384.4,65.1h-71c1.2-14.1,14.8-11.5,14.8-11.5c5-11.1,21.4-9,21.4-9s1.9-9.8,15.7-12.1c0.7-0.1,1.4-0.2,2.1-0.3
	C376.6,40.7,382.8,52.2,384.4,65.1z"/>
<path class="st1" d="M402.7,63c-2-16.7-10-32.1-22.4-43.5c-13.1-12-30.1-18.6-47.9-18.6c-16.2,0-32,5.6-44.6,15.8
	c-12.4,10-21.1,24-24.6,39.5c-1.1,5.1-1.7,10.3-1.7,15.6c0,7.9,1.3,15.7,3.9,23.1c9.8,28.6,36.8,47.8,67,47.8
	c22.6,0,44-10.9,57.3-29.2c4.4-6.1,7.8-12.8,10.1-19.9c2.3-7,3.4-14.3,3.4-21.7C403.3,68.8,403.1,65.9,402.7,63z M332.4,124.5
	c-23.1,0-42.8-14.9-49.9-35.6c-1.9-5.4-2.9-11.2-2.9-17.2c0-4,0.5-7.9,1.3-11.6c5.3-23.6,26.3-41.2,51.5-41.2
	c13.7,0,26.3,5.3,35.7,13.9c9,8.3,15.1,19.6,16.7,32.4c0.3,2.1,0.4,4.3,0.4,6.5c0,5.7-0.9,11.1-2.5,16.2c-1.7,5.4-4.3,10.4-7.5,14.8
	C365.5,115.9,350,124.5,332.4,124.5z"/>
</svg>
