<svg xmlns="http://www.w3.org/2000/svg" id="Layer_1" data-name="Layer 1" viewBox="0 0 47.38 47.38">
  <defs>
    <style>
      .cls-1 {
        fill: #1a3347;
      }

      .cls-1, .cls-2, .cls-3 {
        stroke-width: 0px;
      }

      .cls-2 {
        fill: #4A8FE7;
      }

      .cls-3 {
        fill: #fff;
      }
    </style>
  </defs>
  <path class="cls-2" d="M42.17,23.69c0,1.95-.3,3.85-.89,5.67-.6,1.86-1.48,3.6-2.63,5.18-3.47,4.77-9.07,7.63-14.97,7.63-7.88,0-14.91-5.01-17.48-12.46-.67-1.93-1.01-3.96-1.01-6.03,0-1.36.15-2.73.45-4.07,1.88-8.35,9.47-14.41,18.04-14.41,4.64,0,9.08,1.73,12.49,4.86,3.24,2.97,5.32,7,5.86,11.35.09.73.14,1.5.14,2.28Z"/>
  <path class="cls-3" d="M19.99,29.44H7.01c-.62-1.8-.96-3.74-.96-5.75,0-1.33.15-2.63.43-3.88,2.38-.01,6.28.83,8.79,5.85,0,0,4.16.09,4.73,3.78Z"/>
  <path class="cls-3" d="M40.49,29.1c-.57,1.79-1.43,3.46-2.52,4.95h-12.52s1.16-2.52,5.49-2.91c0,0,3.7-5.13,9.54-2.04Z"/>
  <path class="cls-3" d="M41.2,21.51h-23.44c.39-4.67,4.9-3.8,4.9-3.8,1.66-3.68,7.07-2.96,7.07-2.96,0,0,.64-3.23,5.2-3.98.23-.04.46-.07.68-.09,3.01,2.76,5.06,6.55,5.59,10.82Z"/>
  <path class="cls-1" d="M47.2,20.77c-.68-5.57-3.35-10.73-7.5-14.54C35.32,2.21,29.63,0,23.69,0c-5.41,0-10.7,1.87-14.9,5.27C4.65,8.62,1.74,13.31.58,18.47c-.38,1.7-.58,3.46-.58,5.21,0,2.65.43,5.25,1.29,7.72,3.29,9.55,12.29,15.97,22.4,15.97,7.56,0,14.72-3.65,19.17-9.77,1.48-2.03,2.62-4.27,3.38-6.66.75-2.33,1.14-4.78,1.14-7.26,0-.96-.06-1.94-.18-2.92ZM23.69,41.33c-7.73,0-14.29-4.97-16.68-11.89-.62-1.8-.96-3.74-.96-5.75,0-1.33.15-2.63.43-3.88,1.77-7.88,8.81-13.76,17.21-13.76,4.59,0,8.78,1.76,11.92,4.64,3.01,2.76,5.06,6.55,5.59,10.82.09.71.13,1.44.13,2.18,0,1.89-.29,3.7-.85,5.41-.57,1.79-1.43,3.46-2.52,4.95-3.21,4.41-8.41,7.28-14.28,7.28Z"/>
</svg>
