<svg width="180" version="1.1" id="Layer_1" xmlns="http://www.w3.org/2000/svg" xmlns:xlink="http://www.w3.org/1999/xlink" x="0px" y="0px"
	 viewBox="0 0 836.3 145" style="enable-background:new 0 0 836.3 143.4;" xml:space="preserve">
<style type="text/css">
	.st4{fill:#F2EBE3;}
	.st5{fill:#1A3347;}
	.st6{fill:#4A8FE7;}
	.st7{fill:#FFFFFF;}
</style>
<g>
	<path class="st4" d="M81.3,71.7"/>
	<path class="st5" d="M677.7-0.7c11.2,0,22.4-0.1,33.5,0.1c1.3,0,3.3,1.9,3.9,3.3C725.8,30.8,736.4,59,747,87.1
		c1.8,4.9,3.8,9.8,6.2,16c2.6-7,4.8-12.6,6.9-18.3c10.1-27.3,20.2-54.5,30.2-81.8c0.8-2.3,1.7-4,4.8-4c10.5,0.2,21,0.1,31.6,0.1
		c1.2,2.8,0.9,4.4-2.2,5.2c-7.2,1.9-8.2,3-7.9,10.7c0.8,19.5,1.9,38.9,2.9,58.4c0.9,17.5,1.8,34.9,2.6,52.4
		c0.4,8.8,1.8,10.4,10.3,12.7c1.5,0.4,2.7,2,4,3.1c-0.3,0.4-0.6,0.8-0.8,1.2c-0.9,0.1-1.9,0.4-2.9,0.4c-14.5,0-29,0-43.5-0.2
		c-1.3,0-2.5-1.3-3.8-2c1-1,1.8-2.6,3-3c9.6-3.6,10.4-4.4,9.9-14.5c-1.6-31.1-3.4-62.2-5.1-93.3c0-0.2-0.3-0.5-0.8-1.2
		c-3.1,8.2-6.1,16-8.9,23.8c-10.5,29.3-20.9,58.5-31.2,87.9c-1.1,3.2-2.9,3.5-5.9,3.7c-3.4,0.2-4.1-1.7-5-4.2
		c-13.6-37.3-27.2-74.7-40.8-112c-0.2-0.4-0.4-0.8-1.2-2.1c-0.7,13.8-1.5,26.6-2.1,39.4c-0.8,20-1.5,40-2,59.9
		c-0.2,8,1.6,10,9.7,11.8c1,0.2,2.1,0.3,2.9,0.8c0.9,0.6,1.6,1.6,2.4,2.4c-0.9,0.7-1.8,2-2.7,2c-7.8,0.2-15.7,0.3-23.5,0.3
		c-4.2,0-8.3,0.1-12.5-0.2c-1.1-0.1-2.1-1.3-3.2-2.1c0.9-0.9,1.7-2.5,2.7-2.7c9.1-1.9,12.4-8.2,13-16.6c1.5-23.8,2.9-47.5,4.3-71.3
		c0.7-12,1.3-24,1.5-35.9c0.1-8-0.6-8.4-8.6-10.1C678.9,3.6,676.2,3.5,677.7-0.7z"/>
	<path class="st5" d="M571.1,139.3c1,3,0,4.2-3.2,4.2c-14.5-0.1-29,0-43.5-0.2c-1.3,0-2.6-1.7-3.9-2.6c0.3-0.5,0.5-1,0.8-1.5
		c1.3-0.2,2.5-0.3,3.8-0.6c6.9-1.3,9.2-3.7,9.2-10.8c0.1-17.2,0-34.3,0-51.8c-22.4,0-44.6,0-67.6,0c0,3.2,0,6.4,0,9.7
		c0,13.3,0,26.7,0,40c0,9.4,1.5,11.1,10.6,13.2c1.3,0.3,2.2,2.2,3.3,3.4c-0.4,0.4-0.7,0.8-1.1,1.2c-16.1,0-32.2,0-48.5,0
		c0-1.4,0-2.7,0-4.2c0.6-0.2,1.2-0.4,1.9-0.5c7.9-1.1,10.5-3.8,10.5-11.7c0.1-25.2,0.1-50.3,0.1-75.5c0-11.7,0.1-23.3,0-35
		c0-8.7-1.1-9.8-9.4-12c-1.3-0.4-2.3-2.1-3.4-3.2c0.3-0.4,0.5-0.8,0.8-1.2c15.6,0,31.1,0,47,0c1.2,2.7,1,4.1-2.7,4.8
		c-6.6,1.2-8.6,3.2-8.7,9.5c-0.3,16.1-0.1,32.3-0.1,48.8c22.3,0,44.5,0,67.1,0c0.1-1.4,0.4-2.7,0.4-4c0-14.3,0.1-28.7,0-43
		c0-7.8-1.9-10.2-9.5-11.4c-3.2-0.5-4-1.7-3-4.9c15.8,0,31.7,0,47.8,0c1.1,3.1,0.3,4.4-3.2,4.9c-7.2,1.1-8.5,2.9-8.6,10.3
		c-0.1,35.5-0.1,71-0.1,106.5C557.8,135.7,557.8,135.7,571.1,139.3z"/>
	<path class="st5" d="M101-0.3c0,9.8,0.1,19.1-0.1,28.5c0,1.1-1.3,2.1-2,3.1c-0.9-0.9-2.4-1.6-2.7-2.6c-2.9-11-10.5-16.6-21.3-17
		c-12.6-0.5-25.3-0.1-38.3-0.1c0,17.1,0,34.2,0,51.4c12.4,0,24.8,0.3,37.2-0.2c5.6-0.2,9-4.3,10.9-9.7c0.6-1.6,2.3-2.9,3.5-4.4
		c0.5,0.3,1,0.6,1.4,0.9c0.1,0.9,0.4,1.8,0.4,2.8c0,11.5,0,23-0.2,34.5c0,1.2-1.1,2.3-1.7,3.5c-1-1-2.6-1.8-3-3
		c-2.8-8.7-6.5-11.8-15.5-11.9c-11-0.1-21.9,0-33.4,0c0,4.2,0,8,0,11.8c0,11.7,0,23.3,0,35c0,6.5,2,9.4,8.3,9.4
		c13.1,0.1,26.3,0.1,39.3-1.2c10.9-1.1,17.8-8.4,21-18.9c0.6-2.1,1.1-4.7,4-3.4c1,0.4,1.6,2.9,1.4,4.4c-1.2,10.4-2.6,20.8-3.9,31.4
		c-35.5,0-70.6,0-105.9,0c0-1.8,0-3.2,0-4.9c1.7-0.5,3.4-0.9,5.1-1.4c5.4-1.6,7.7-4.5,7.7-10.2c0-37.3,0-74.6,0-111.9
		c0-6-2.3-8.6-9.4-10.3C0.8,4.3-0.9,3.4,0.5-0.3C33.7-0.3,67.1-0.3,101-0.3z"/>
	<path class="st5" d="M171.1,130.8c12.1,0,23.4,0.7,34.6-0.2c13.2-1.1,21.9-8.8,26-21.5c1-2.9,2.3-4.2,6-2.8
		c-1.9,12.2-3.8,24.5-5.7,37.3c-32.1,0-64.2,0-97.8,0c1.4-2.2,2.1-4.5,3.3-4.9c8.6-2.7,10-3.9,10-12.8c0.2-25.3,0.1-50.6,0.1-76
		c0-11.7,0-23.3-0.3-35c-0.2-7.2-2.1-8.8-8.9-10.5c-1.3-0.3-2.3-2.2-3.4-3.3c0.3-0.4,0.7-0.8,1-1.2c15.6,0,31.2,0,46.8,0
		c0.7,2.6,1,4.5-2.6,4.9c-5.3,0.6-8.3,3.7-8.4,9.3c-0.1,7.3-0.7,14.6-0.7,22c-0.1,29.7,0,59.3,0,89C171.1,127,171.1,129,171.1,130.8
		z"/>
	<path class="st5" d="M646.5,143.5c-9.1,0-18.2,0-27.4,0c-5.8,0-11.7-0.2-17.5,0c-3.3,0.1-4.2-1.2-3.2-4.5c1.1-0.2,2.3-0.5,3.6-0.7
		c5.2-1.1,8.2-4.2,8.3-9.7c0.2-15.1,0.4-30.3,0.5-45.4c0.1-20.8,0-41.6,0-62.4c0-1.2,0-2.3-0.1-3.5c-0.4-9.6-1.5-10.9-11.2-13.1
		c0-1.3,0-2.7,0-4.2c15.6,0,31,0,46.4,0c0.3,0.4,0.7,0.8,1,1.2c-1.1,1.1-2.1,3-3.4,3.3c-7.3,1.7-9.4,3.8-9.5,11.7
		c-0.2,17.6,0,35.3,0,52.9c0,19,0,38,0,56.9c0,8.6,1.8,10.6,10.2,12.6c1.3,0.3,2.2,2.2,3.3,3.3C647.3,142.5,646.9,143,646.5,143.5z"
		/>
	<g>
		<path class="st6" d="M387.3,71.7c0,5.9-0.9,11.7-2.7,17.2c-1.8,5.6-4.5,10.9-8,15.7c-10.5,14.5-27.5,23.1-45.3,23.1
			c-23.9,0-45.1-15.2-52.9-37.7c-2-5.8-3.1-12-3.1-18.2c0-4.1,0.5-8.3,1.4-12.3c5.7-25.3,28.7-43.6,54.6-43.6
			c14.1,0,27.5,5.2,37.8,14.7c9.8,9,16.1,21.2,17.7,34.3C387.2,67,387.3,69.4,387.3,71.7z"/>
		<path class="st7" d="M320.2,89.1h-39.3c-1.9-5.5-2.9-11.3-2.9-17.4c0-4,0.5-8,1.3-11.8c7.2,0,19,2.5,26.6,17.7
			C305.9,77.7,318.5,78,320.2,89.1z"/>
		<path class="st7" d="M382.2,88.1c-1.7,5.4-4.3,10.5-7.6,15h-37.9c0,0,3.5-7.6,16.6-8.8C353.3,94.3,364.5,78.8,382.2,88.1z"/>
		<path class="st7" d="M384.4,65.1h-71c1.2-14.1,14.8-11.5,14.8-11.5c5-11.1,21.4-9,21.4-9s1.9-9.8,15.7-12.1
			c0.7-0.1,1.4-0.2,2.1-0.3C376.6,40.7,382.8,52.2,384.4,65.1z"/>
		<path class="st5" d="M402.6,62.9c-2.1-16.9-10.1-32.5-22.7-44C366.6,6.7,349.4,0,331.4,0C315,0,299,5.7,286.3,16
			c-12.5,10.1-21.3,24.3-24.8,40c-1.2,5.1-1.8,10.5-1.8,15.8c0,8,1.3,15.9,3.9,23.4c10,28.9,37.2,48.3,67.8,48.3
			c22.9,0,44.6-11.1,58-29.6c4.5-6.2,7.9-12.9,10.2-20.2c2.3-7.1,3.4-14.5,3.4-22C403.1,68.8,402.9,65.8,402.6,62.9z M331.4,125.1
			c-23.4,0-43.3-15.1-50.5-36c-1.9-5.5-2.9-11.3-2.9-17.4c0-4,0.5-8,1.3-11.8c5.4-23.8,26.7-41.6,52.1-41.6c13.9,0,26.6,5.3,36.1,14
			c9.1,8.4,15.3,19.8,16.9,32.8c0.3,2.2,0.4,4.4,0.4,6.6c0,5.7-0.9,11.2-2.6,16.4c-1.7,5.4-4.3,10.5-7.6,15
			C364.9,116.4,349.2,125.1,331.4,125.1z"/>
	</g>
</g>
</svg>
